<svg width="24" height="24" viewBox="0 0 24 24" fill="none" xmlns="http://www.w3.org/2000/svg">
<g clip-path="url(#clip0_1_555)">
<path d="M12 0C5.37188 0 0 5.37188 0 12C0 18.6281 5.37188 24 12 24C18.6281 24 24 18.6281 24 12C24 5.37188 18.6281 0 12 0ZM19.0594 13.0594L14.2266 17.8922C13.6406 18.4781 12.6914 18.4781 12.1055 17.8922C11.5195 17.3063 11.5195 16.357 12.1055 15.7711L14.3812 13.5H6C5.17031 13.5 4.5 12.8297 4.5 12C4.5 11.1703 5.17078 10.5 6 10.5H14.3812L12.0666 8.18531C11.4806 7.59937 11.4806 6.65016 12.0666 6.06422C12.6525 5.47828 13.6017 5.47828 14.1877 6.06422L19.0205 10.897C19.4344 11.3109 19.5 11.7703 19.5 12C19.5 12.2297 19.4344 12.6891 19.0594 13.0594Z" fill="#003ECF"/>
</g>
<defs>
<clipPath id="clip0_1_555">
<rect width="24" height="24" fill="white"/>
</clipPath>
</defs>
</svg>
