<svg width="32" height="33" viewBox="0 0 32 33" fill="none" xmlns="http://www.w3.org/2000/svg">
<path d="M14.0334 19.5333L10.7667 16.2667C10.5667 16.0667 10.3222 15.9667 10.0334 15.9667C9.74446 15.9667 9.50002 16.0667 9.30002 16.2667C9.0778 16.4889 8.96669 16.75 8.96669 17.05C8.96669 17.35 9.06669 17.6 9.26669 17.8L13.3334 21.8667C13.5111 22.0444 13.7445 22.1333 14.0334 22.1333C14.3222 22.1333 14.5556 22.0444 14.7334 21.8667L22.7334 13.8667C22.9334 13.6667 23.0334 13.4222 23.0334 13.1333C23.0334 12.8444 22.9222 12.5889 22.7 12.3667C22.5 12.1667 22.25 12.0667 21.95 12.0667C21.65 12.0667 21.3889 12.1778 21.1667 12.4L14.0334 19.5333ZM16 29.8333C14.1111 29.8333 12.3556 29.4944 10.7334 28.8167C9.11113 28.1389 7.70002 27.2 6.50002 26C5.30002 24.8 4.36113 23.3889 3.68335 21.7667C3.00558 20.1444 2.66669 18.3889 2.66669 16.5C2.66669 14.6333 3.00558 12.8889 3.68335 11.2667C4.36113 9.64445 5.30002 8.23334 6.50002 7.03334C7.70002 5.83334 9.11113 4.88889 10.7334 4.20001C12.3556 3.51112 14.1111 3.16667 16 3.16667C17.8667 3.16667 19.6111 3.51112 21.2334 4.20001C22.8556 4.88889 24.2667 5.83334 25.4667 7.03334C26.6667 8.23334 27.6111 9.64445 28.3 11.2667C28.9889 12.8889 29.3334 14.6333 29.3334 16.5C29.3334 18.3889 28.9889 20.1444 28.3 21.7667C27.6111 23.3889 26.6667 24.8 25.4667 26C24.2667 27.2 22.8556 28.1389 21.2334 28.8167C19.6111 29.4944 17.8667 29.8333 16 29.8333Z" fill="#00BE8D"/>
</svg>
