<svg width="64" height="64" viewBox="0 0 64 64" fill="none" xmlns="http://www.w3.org/2000/svg">
<g clip-path="url(#clip0_1_243)">
<path d="M63.94 21.516L59.94 5.516C59.72 4.624 58.916 4 58 4H6C5.084 4 4.28 4.624 4.06 5.516L0.06 21.516C0.02 21.672 0 21.836 0 22C0 25.352 1.588 28.308 4 30.124V58C4 59.104 4.896 60 6 60H26C27.104 60 28 59.104 28 58V44H36V58C36 59.104 36.896 60 38 60H58C59.104 60 60 59.104 60 58V30.124C62.412 28.308 64 25.352 64 22C64 21.836 63.98 21.672 63.94 21.516ZM56 56H40V42C40 40.896 39.104 40 38 40H26C24.896 40 24 40.896 24 42V56H8V31.84C8.492 31.924 8.988 32 9.5 32C12.548 32 15.26 30.484 17 28.132C18.74 30.484 21.452 32 24.5 32C27.548 32 30.26 30.484 32 28.132C33.74 30.484 36.452 32 39.5 32C42.548 32 45.26 30.484 47 28.132C48.74 30.484 51.452 32 54.5 32C55.012 32 55.508 31.924 56 31.84V56ZM54.5 28C51.468 28 49 25.308 49 22C49 20.896 48.104 20 47 20C45.896 20 45 20.896 45 22C45 25.308 42.532 28 39.5 28C36.468 28 34 25.308 34 22C34 20.896 33.104 20 32 20C30.896 20 30 20.896 30 22C30 25.308 27.532 28 24.5 28C21.468 28 19 25.308 19 22C19 20.896 18.104 20 17 20C15.896 20 15 20.896 15 22C15 25.308 12.532 28 9.5 28C6.54 28 4.116 25.432 4.004 22.232L7.564 8H56.44L60 22.232C59.884 25.432 57.46 28 54.5 28Z" fill="#EB5A4D"/>
<path d="M63.94 21.516L59.94 5.516C59.72 4.624 58.916 4 58 4H6C5.084 4 4.28 4.624 4.06 5.516L0.06 21.516C0.02 21.672 0 21.836 0 22C0 25.352 1.588 28.308 4 30.124V58C4 59.104 4.896 60 6 60H26C27.104 60 28 59.104 28 58V44H36V58C36 59.104 36.896 60 38 60H58C59.104 60 60 59.104 60 58V30.124C62.412 28.308 64 25.352 64 22C64 21.836 63.98 21.672 63.94 21.516ZM56 56H40V42C40 40.896 39.104 40 38 40H26C24.896 40 24 40.896 24 42V56H8V31.84C8.492 31.924 8.988 32 9.5 32C12.548 32 15.26 30.484 17 28.132C18.74 30.484 21.452 32 24.5 32C27.548 32 30.26 30.484 32 28.132C33.74 30.484 36.452 32 39.5 32C42.548 32 45.26 30.484 47 28.132C48.74 30.484 51.452 32 54.5 32C55.012 32 55.508 31.924 56 31.84V56ZM54.5 28C51.468 28 49 25.308 49 22C49 20.896 48.104 20 47 20C45.896 20 45 20.896 45 22C45 25.308 42.532 28 39.5 28C36.468 28 34 25.308 34 22C34 20.896 33.104 20 32 20C30.896 20 30 20.896 30 22C30 25.308 27.532 28 24.5 28C21.468 28 19 25.308 19 22C19 20.896 18.104 20 17 20C15.896 20 15 20.896 15 22C15 25.308 12.532 28 9.5 28C6.54 28 4.116 25.432 4.004 22.232L7.564 8H56.44L60 22.232C59.884 25.432 57.46 28 54.5 28Z" fill="#EB5A4D"/>
</g>
<defs>
<clipPath id="clip0_1_243">
<rect width="64" height="64" fill="white"/>
</clipPath>
</defs>
</svg>
