<svg width="64" height="64" viewBox="0 0 64 64" fill="none" xmlns="http://www.w3.org/2000/svg">
<path d="M46 38C46 38.5305 45.7893 39.0392 45.4142 39.4142C45.0392 39.7893 44.5304 40 44 40C43.4696 40 42.9609 39.7893 42.5858 39.4142C42.2107 39.0392 42 38.5305 42 38C42 36.35 41.006 34.89 39.468 34.278C39.2168 34.1864 38.9865 34.0453 38.7908 33.8631C38.5951 33.6809 38.4379 33.4613 38.3285 33.2173C38.2191 32.9733 38.1598 32.7098 38.154 32.4425C38.1482 32.1752 38.1961 31.9094 38.2948 31.6609C38.3935 31.4124 38.541 31.1862 38.7287 30.9957C38.9163 30.8052 39.1403 30.6542 39.3872 30.5518C39.6342 30.4493 39.8993 30.3975 40.1667 30.3992C40.4341 30.401 40.6984 30.4563 40.944 30.562C42.4384 31.1476 43.7209 32.1712 44.6232 33.4985C45.5254 34.8259 46.0054 36.395 46 38Z" fill="#EB5A4D"/>
<path d="M49.196 46.368C51.0145 43.9571 51.9987 41.0198 52 38C52 32.43 48.722 27.622 44 25.37V6C44 5.46957 43.7893 4.96086 43.4142 4.58579C43.0391 4.21071 42.5304 4 42 4H6C5.46957 4 4.96086 4.21071 4.58579 4.58579C4.21071 4.96086 4 5.46957 4 6V42C4 42.5304 4.21071 43.0391 4.58579 43.4142C4.96086 43.7893 5.46957 44 6 44H25.37C27.622 48.722 32.43 52 38 52C41.14 52 44.03 50.948 46.368 49.196L56.586 59.414C56.7717 59.5997 56.9921 59.747 57.2347 59.8475C57.4774 59.948 57.7374 59.9997 58 59.9997C58.2626 59.9997 58.5226 59.948 58.7653 59.8475C59.0079 59.747 59.2283 59.5997 59.414 59.414C59.5997 59.2283 59.747 59.0079 59.8475 58.7653C59.948 58.5226 59.9997 58.2626 59.9997 58C59.9997 57.7374 59.948 57.4774 59.8475 57.2347C59.747 56.9921 59.5997 56.7717 59.414 56.586L49.196 46.368ZM22 8H26V12.764L24.894 12.212C24.6161 12.073 24.3097 12.0006 23.999 12.0006C23.6883 12.0006 23.3819 12.073 23.104 12.212L22 12.764V8ZM24.146 40H8V8H18V16C18.0002 16.341 18.0876 16.6763 18.2537 16.9741C18.4199 17.2719 18.6593 17.5224 18.9494 17.7017C19.2395 17.881 19.5706 17.9832 19.9112 17.9986C20.2519 18.0141 20.5909 17.9423 20.896 17.79L24 16.236L27.106 17.788C27.4109 17.9397 27.7495 18.0112 28.0897 17.9956C28.4299 17.98 28.7605 17.8779 29.0503 17.6989C29.34 17.5199 29.5793 17.2699 29.7455 16.9726C29.9117 16.6753 29.9993 16.3406 30 16V8H40V24.148C30.848 22.778 22.792 30.726 24.146 40ZM38 48C32.294 48 28 43.204 28 38C28 32.486 32.486 28 38 28C43.264 28 48 32.34 48 38C48 43.514 43.514 48 38 48Z" fill="#EB5A4D"/>
</svg>
