<svg width="64" height="64" viewBox="0 0 64 64" fill="none" xmlns="http://www.w3.org/2000/svg">
<g clip-path="url(#clip0_1_257)">
<path d="M31.2417 64L31.1951 63.9999C27.4299 63.9752 24.2491 60.7157 24.2491 56.8821V28.409C24.2491 25.7062 25.7821 23.3134 28.2499 22.1646C30.7119 21.0185 33.5221 21.3711 35.6048 23.082L58.1584 39.8106C58.2164 39.8536 58.2725 39.8991 58.3266 39.947C60.3444 41.7341 61.0193 44.4594 60.0884 47.0593C59.0971 49.8279 56.595 51.6862 53.714 51.7934C53.6838 51.7945 53.6535 51.7952 53.6232 51.7952L43.1176 51.804L36.687 61.0664C36.6798 61.0768 36.6725 61.0873 36.665 61.0977C35.3027 62.9971 33.4282 63.9999 31.2417 64ZM31.231 26.5045C30.8263 26.5045 30.5004 26.6317 30.36 26.6972C30.0258 26.8528 29.2486 27.331 29.2486 28.4092V56.8821C29.2486 58.087 30.2934 58.9942 31.2276 59.0003C31.6186 59.0009 32.0531 58.9428 32.592 58.1979L39.7556 47.8797C39.9855 47.5485 40.2922 47.2778 40.6494 47.0907C41.0066 46.9037 41.4037 46.8058 41.8069 46.8055L53.5645 46.7955C54.5482 46.7415 55.1572 45.9994 55.3812 45.374C55.5435 44.9207 55.6167 44.2778 55.0737 43.7477L32.571 27.0568C32.5301 27.0264 32.4902 26.9948 32.4512 26.962C32.0323 26.6097 31.599 26.5045 31.231 26.5045ZM19.6792 45.8534C20.3551 44.6496 19.9271 43.1257 18.7234 42.4498C12.4173 38.909 8.49995 32.2219 8.49995 24.9984C8.49995 13.9711 17.4712 4.99968 28.4987 4.99968C39.5261 4.99968 48.4974 13.9711 48.4974 24.9984C48.4974 26.379 49.6166 27.4982 50.9972 27.4982C52.3779 27.4982 53.4971 26.379 53.4971 24.9984C53.4971 11.2143 42.2828 0 28.4987 0C14.7146 0 3.50027 11.2143 3.50027 24.9984C3.50027 34.0272 8.39546 42.3846 16.2755 46.8092C16.6483 47.0193 17.069 47.1297 17.497 47.1297C18.3716 47.1298 19.2205 46.6702 19.6792 45.8534Z" fill="#EB5A4D"/>
</g>
<defs>
<clipPath id="clip0_1_257">
<rect width="64" height="64" fill="white"/>
</clipPath>
</defs>
</svg>
