<svg width="64" height="64" viewBox="0 0 64 64" fill="none" xmlns="http://www.w3.org/2000/svg">
<path d="M10.0125 50.7C10.45 51 12.1375 51.8375 13.5625 50.0375L23.2125 35.9375L33.425 45.7875C33.9625 46.3 34.7 46.575 35.45 46.4875C36.1875 46.4125 36.8625 46.025 37.3 45.4125L54.2375 21.125L54.85 29.25C55 31.3125 56.9375 31.65 57.5875 31.6C58.9875 31.4875 60.05 30.275 59.9375 28.8625L58.8625 14.575C58.7625 13.175 57.5375 12.1125 56.125 12.225L41.8375 13.3C40.4375 13.4 39.375 14.625 39.4875 16.0375C39.5875 17.4375 40.8 18.4875 42.225 18.3875L50.35 17.775L34.825 40.025L24.5875 30.15C24.05 29.625 23.3 29.3625 22.5625 29.45C21.8125 29.525 21.1375 29.925 20.7125 30.55L9.35 47.15C8.55 48.3125 8.85 49.9 10.0125 50.7Z" fill="#EB5A4D"/>
<path d="M60.075 57.525H6.475V3.925C6.475 2.5125 5.3375 1.375 3.925 1.375C2.5125 1.375 1.375 2.5125 1.375 3.925V60.075C1.375 61.4875 2.5125 62.625 3.925 62.625H60.075C61.4875 62.625 62.625 61.4875 62.625 60.075C62.625 58.6625 61.4875 57.525 60.075 57.525Z" fill="#EB5A4D"/>
</svg>
