<svg width="161" height="27" viewBox="0 0 161 27" fill="none" xmlns="http://www.w3.org/2000/svg">
<path d="M14.9336 26V15.9395H6.69922V26H0.274414V0.832031H6.69922V10.2949H14.9336V0.832031H21.3584V26H14.9336ZM37.7939 26V23.9912H37.7275C37.2627 24.9541 36.5876 25.6458 35.7021 26.0664C34.9385 26.4316 33.9811 26.6143 32.8301 26.6143C30.4284 26.6143 28.5801 25.8229 27.2852 24.2402C26.5768 23.3548 26.1064 22.4362 25.874 21.4844C25.6859 20.765 25.5918 19.7412 25.5918 18.4131V7.12402H31.2363V17.5664C31.2363 18.7839 31.4245 19.6803 31.8008 20.2559C32.2656 20.9753 33.0846 21.335 34.2578 21.335C36.416 21.335 37.4951 20.0566 37.4951 17.5V7.12402H43.1396V26H37.7939ZM66.0498 16.7861C66.0498 17.3285 66.0055 17.8265 65.917 18.2803H51.7725C52.1266 20.6598 53.5986 21.8496 56.1885 21.8496C57.5387 21.8496 58.6842 21.263 59.625 20.0898H65.4023C64.5612 22.0488 63.3548 23.6094 61.7832 24.7715C60.112 26 58.2471 26.6143 56.1885 26.6143C53.4326 26.6143 51.0807 25.6348 49.1328 23.6758C47.1738 21.7279 46.1943 19.376 46.1943 16.6201C46.1943 13.8532 47.1517 11.4792 49.0664 9.49805C51.0033 7.48372 53.3441 6.47656 56.0889 6.47656C58.9443 6.47656 61.3294 7.48372 63.2441 9.49805C65.1146 11.4792 66.0498 13.9085 66.0498 16.7861ZM60.4053 14.4785C59.9404 12.3203 58.5127 11.2412 56.1221 11.2412C53.7314 11.2412 52.3037 12.3203 51.8389 14.4785H60.4053ZM69.4365 26V0.832031H83.415V6.47656H75.5957V10.3945H83.166V16.0391H75.5957V20.3555H83.415V26H69.4365ZM106.226 18.8281C105.683 21.1302 104.493 23.0062 102.656 24.4561C100.83 25.8949 98.7217 26.6143 96.3311 26.6143C93.5088 26.6143 91.1237 25.6348 89.1758 23.6758C87.2168 21.7279 86.2373 19.3428 86.2373 16.5205C86.2373 13.7204 87.1947 11.3519 89.1094 9.41504C91.0352 7.45605 93.3981 6.47656 96.1982 6.47656C98.6442 6.47656 100.791 7.2015 102.64 8.65137C104.521 10.1123 105.705 12.0326 106.192 14.4121H100.481C99.6624 12.6413 98.2568 11.7559 96.2646 11.7559C94.9476 11.7559 93.8851 12.2373 93.0771 13.2002C92.3024 14.1077 91.915 15.2256 91.915 16.5537C91.915 17.915 92.319 19.0439 93.127 19.9404C93.9681 20.8701 95.0583 21.335 96.3975 21.335C98.2458 21.335 99.6071 20.4993 100.481 18.8281H106.226ZM128.787 16.5537C128.787 19.4313 127.813 21.8219 125.865 23.7256C123.928 25.6292 121.51 26.5811 118.61 26.5811C115.711 26.5811 113.298 25.6292 111.372 23.7256C109.424 21.8219 108.45 19.4313 108.45 16.5537C108.45 13.665 109.424 11.2689 111.372 9.36523C113.298 7.46159 115.711 6.50977 118.61 6.50977C121.51 6.50977 123.928 7.46159 125.865 9.36523C127.813 11.2689 128.787 13.665 128.787 16.5537ZM123.143 16.5537C123.143 15.2477 122.716 14.1354 121.864 13.2168C120.99 12.265 119.905 11.7891 118.61 11.7891C117.326 11.7891 116.247 12.265 115.373 13.2168C114.521 14.1354 114.095 15.2477 114.095 16.5537C114.095 17.8486 114.521 18.9609 115.373 19.8906C116.247 20.8314 117.326 21.3018 118.61 21.3018C119.905 21.3018 120.99 20.8314 121.864 19.8906C122.716 18.9609 123.143 17.8486 123.143 16.5537ZM155.3 26V15.9727C155.3 14.6777 155.145 13.7204 154.835 13.1006C154.392 12.2262 153.584 11.7891 152.411 11.7891C151.249 11.7891 150.413 12.1709 149.904 12.9346C149.484 13.5654 149.273 14.484 149.273 15.6904V26H143.629V15.7402C143.629 14.5671 143.457 13.665 143.114 13.0342C142.66 12.2041 141.891 11.7891 140.807 11.7891C139.611 11.7891 138.754 12.2096 138.233 13.0508C137.824 13.7148 137.619 14.6888 137.619 15.9727V26H131.975V7.12402H137.237V9.13281H137.32C137.829 8.21419 138.56 7.53353 139.512 7.09082C140.364 6.68132 141.366 6.47656 142.517 6.47656C144.929 6.47656 146.744 7.59993 147.962 9.84668C149.379 7.59993 151.371 6.47656 153.938 6.47656C156.008 6.47656 157.663 7.11296 158.902 8.38574C159.854 9.3597 160.463 10.4886 160.729 11.7725C160.828 12.3037 160.895 12.929 160.928 13.6484C160.939 13.9251 160.944 14.2572 160.944 14.6445V26H155.3Z" fill="#003ECF"/>
</svg>
